<svg xmlns="http://www.w3.org/2000/svg" width="13.068" height="10.887" viewBox="0 0 13.068 10.887"><defs><style>.a{fill:none;stroke:#0d152b;stroke-linecap:round;stroke-linejoin:round;}</style></defs><g transform="translate(-379.5 -129.5)"><g transform="translate(-2180.675 -6966.466)"><path class="a" d="M2572.743,7106.353v-2.887h-12.068v2.887"/><path class="a" d="M2572.743,7103.466v-1a2,2,0,0,0-2-2h-8.068a2,2,0,0,0-2,2v1"/><path class="a" d="M2570.743,7100.466v-2a1.856,1.856,0,0,0-1.667-2h-4.734a1.855,1.855,0,0,0-1.667,2v2"/><path class="a" d="M2564.743,7100.466v-1a1,1,0,0,1,1-1h2a1,1,0,0,1,1,1v1"/></g></g></svg>