<svg xmlns="http://www.w3.org/2000/svg" width="9.523" height="13.706" viewBox="0 0 9.523 13.706"><defs><style>.a{fill:none;stroke:#fff;stroke-miterlimit:10;}</style></defs><g transform="translate(7934.762 -248.5)"><path class="a" d="M-7930.229,261.526l-.149-.6a12.305,12.305,0,0,0-2.229-4.576l-.607-.778a4.073,4.073,0,0,1,.334-5.384h0a4.072,4.072,0,0,1,5.76,0h0a4.073,4.073,0,0,1,.334,5.384l-.607.778a12.305,12.305,0,0,0-2.229,4.576l-.149.6A.236.236,0,0,1-7930.229,261.526Z"/><circle class="a" cx="2" cy="2" r="2" transform="translate(-7932 251)"/></g></svg>